<svg width="53" height="62" viewBox="0 0 53 62" fill="none" xmlns="http://www.w3.org/2000/svg">
<path d="M26.551 0.400391C32.8385 0.400391 38.002 5.56313 38.0022 11.8506V24.3926C38.0021 25.0991 37.4294 25.6717 36.7229 25.6719C36.0162 25.6719 35.4428 25.0992 35.4426 24.3926V11.8506C35.4426 10.8338 35.0859 9.46628 34.5745 8.20215C34.0632 6.93877 33.368 5.70662 32.6458 4.98438C31.9272 4.26585 30.8913 3.66856 29.8079 3.25098C28.7229 2.83283 27.554 2.58105 26.551 2.58105C25.5481 2.58111 24.3791 2.83281 23.2942 3.25098C22.2108 3.66859 21.1748 4.26585 20.4563 4.98438C19.7397 5.70108 19 6.92647 18.4417 8.19043C17.8846 9.45142 17.4749 10.8245 17.4749 11.8506V24.4844C17.4749 25.1401 16.9431 25.6719 16.2874 25.6719C15.6318 25.6717 15.1008 25.14 15.1008 24.4844V11.8506C15.101 5.56323 20.2637 0.400562 26.551 0.400391Z" fill="#33303E" stroke="#33303E" stroke-width="0.8"/>
<path d="M1 55.0521L4.95098 16.6405C4.96147 16.5385 5.0474 16.4609 5.14993 16.4609H47.3572C47.4591 16.4609 47.5441 16.5327 47.5555 16.634C48.7918 27.6511 52.1133 50.4382 52.1133 55.0521C52.1133 59.5331 47.9997 61.1944 44.7899 61.1944H9.24077C2.83718 61.1944 1 57.9053 1 55.0521Z" stroke="#33303E"/>
</svg>
